{"scene":0,"scenes":[{"nodes":[0]}],"asset":{"version":"2.0","generator":"https://github.com/mikedh/trimesh"},"accessors":[{"componentType":5125,"type":"SCALAR","bufferView":0,"count":275412,"max":[28196],"min":[0]},{"componentType":5126,"type":"VEC3","byteOffset":0,"bufferView":1,"count":28197,"max":[917.3277587890625,38.91377639770508,982.0535278320312],"min":[-1075.2889404296875,-1.086225152015686,-928.8433837890625]}],"meshes":[{"name":"geometry_0","extras":{},"primitives":[{"attributes":{"POSITION":1},"indices":0,"mode":4}]}],"nodes":[{"name":"world","children":[1]},{"name":"geometry_0","mesh":0}],"buffers":[{"uri":"gltf_buffer_0.bin","byteLength":1101648},{"uri":"gltf_buffer_1.bin","byteLength":338364}],"bufferViews":[{"buffer":0,"byteOffset":0,"byteLength":1101648},{"buffer":1,"byteOffset":0,"byteLength":338364}]}