{"scene":0,"scenes":[{"nodes":[0]}],"asset":{"version":"2.0","generator":"https://github.com/mikedh/trimesh"},"accessors":[{"componentType":5125,"type":"SCALAR","bufferView":0,"count":122892,"max":[12800],"min":[0]},{"componentType":5126,"type":"VEC3","byteOffset":0,"bufferView":1,"count":12801,"max":[671.24462890625,55.70436096191406,984.2824096679688],"min":[-1056.0203857421875,-0.12563861906528473,-732.7832641601562]}],"meshes":[{"name":"geometry_0","extras":{},"primitives":[{"attributes":{"POSITION":1},"indices":0,"mode":4}]}],"nodes":[{"name":"world","children":[1]},{"name":"geometry_0","mesh":0}],"buffers":[{"uri":"gltf_buffer_0.bin","byteLength":491568},{"uri":"gltf_buffer_1.bin","byteLength":153612}],"bufferViews":[{"buffer":0,"byteOffset":0,"byteLength":491568},{"buffer":1,"byteOffset":0,"byteLength":153612}]}