{"scene":0,"scenes":[{"nodes":[0]}],"asset":{"version":"2.0","generator":"https://github.com/mikedh/trimesh"},"accessors":[{"componentType":5125,"type":"SCALAR","bufferView":0,"count":48552,"max":[5583],"min":[0]},{"componentType":5126,"type":"VEC3","byteOffset":0,"bufferView":1,"count":5584,"max":[937.6019287109375,196.01617431640625,596.45361328125],"min":[-852.6089477539062,-4.983825206756592,-844.8521118164062]}],"meshes":[{"name":"geometry_0","extras":{},"primitives":[{"attributes":{"POSITION":1},"indices":0,"mode":4}]}],"nodes":[{"name":"world","children":[1]},{"name":"geometry_0","mesh":0}],"buffers":[{"uri":"gltf_buffer_0.bin","byteLength":194208},{"uri":"gltf_buffer_1.bin","byteLength":67008}],"bufferViews":[{"buffer":0,"byteOffset":0,"byteLength":194208},{"buffer":1,"byteOffset":0,"byteLength":67008}]}