{"scene":0,"scenes":[{"nodes":[0]}],"asset":{"version":"2.0","generator":"https://github.com/mikedh/trimesh"},"accessors":[{"componentType":5125,"type":"SCALAR","bufferView":0,"count":84180,"max":[8079],"min":[0]},{"componentType":5126,"type":"VEC3","byteOffset":0,"bufferView":1,"count":8080,"max":[699.9805908203125,59.77140808105469,806.1608276367188],"min":[-731.2214965820312,-0.2285926640033722,-701.0396728515625]}],"meshes":[{"name":"geometry_0","extras":{},"primitives":[{"attributes":{"POSITION":1},"indices":0,"mode":4}]}],"nodes":[{"name":"world","children":[1]},{"name":"geometry_0","mesh":0}],"buffers":[{"uri":"gltf_buffer_0.bin","byteLength":336720},{"uri":"gltf_buffer_1.bin","byteLength":96960}],"bufferViews":[{"buffer":0,"byteOffset":0,"byteLength":336720},{"buffer":1,"byteOffset":0,"byteLength":96960}]}