{"scene":0,"scenes":[{"nodes":[0]}],"asset":{"version":"2.0","generator":"https://github.com/mikedh/trimesh"},"accessors":[{"componentType":5125,"type":"SCALAR","bufferView":0,"count":196812,"max":[19857],"min":[0]},{"componentType":5126,"type":"VEC3","byteOffset":0,"bufferView":1,"count":19858,"max":[1067.052001953125,108.56104278564453,818.1937255859375],"min":[-1044.806640625,-0.4389565885066986,-894.7557983398438]}],"meshes":[{"name":"geometry_0","extras":{},"primitives":[{"attributes":{"POSITION":1},"indices":0,"mode":4}]}],"nodes":[{"name":"world","children":[1]},{"name":"geometry_0","mesh":0}],"buffers":[{"uri":"gltf_buffer_0.bin","byteLength":787248},{"uri":"gltf_buffer_1.bin","byteLength":238296}],"bufferViews":[{"buffer":0,"byteOffset":0,"byteLength":787248},{"buffer":1,"byteOffset":0,"byteLength":238296}]}