{"scene":0,"scenes":[{"nodes":[0]}],"asset":{"version":"2.0","generator":"https://github.com/mikedh/trimesh"},"accessors":[{"componentType":5125,"type":"SCALAR","bufferView":0,"count":134412,"max":[13507],"min":[0]},{"componentType":5126,"type":"VEC3","byteOffset":0,"bufferView":1,"count":13508,"max":[839.1323852539062,63.624244689941406,604.529296875],"min":[-986.560791015625,-0.37575510144233704,-686.5210571289062]}],"meshes":[{"name":"geometry_0","extras":{},"primitives":[{"attributes":{"POSITION":1},"indices":0,"mode":4}]}],"nodes":[{"name":"world","children":[1]},{"name":"geometry_0","mesh":0}],"buffers":[{"uri":"gltf_buffer_0.bin","byteLength":537648},{"uri":"gltf_buffer_1.bin","byteLength":162096}],"bufferViews":[{"buffer":0,"byteOffset":0,"byteLength":537648},{"buffer":1,"byteOffset":0,"byteLength":162096}]}