{"scene":0,"scenes":[{"nodes":[0]}],"asset":{"version":"2.0","generator":"https://github.com/mikedh/trimesh"},"accessors":[{"componentType":5125,"type":"SCALAR","bufferView":0,"count":110832,"max":[17670],"min":[0]},{"componentType":5126,"type":"VEC3","byteOffset":0,"bufferView":1,"count":17671,"max":[858.6924438476562,110.58238220214844,784.5673217773438],"min":[-804.9207153320312,-7.277616500854492,-778.716552734375]}],"meshes":[{"name":"geometry_0","extras":{},"primitives":[{"attributes":{"POSITION":1},"indices":0,"mode":4}]}],"nodes":[{"name":"world","children":[1]},{"name":"geometry_0","mesh":0}],"buffers":[{"uri":"gltf_buffer_0.bin","byteLength":443328},{"uri":"gltf_buffer_1.bin","byteLength":212052}],"bufferViews":[{"buffer":0,"byteOffset":0,"byteLength":443328},{"buffer":1,"byteOffset":0,"byteLength":212052}]}