{"scene":0,"scenes":[{"nodes":[0]}],"asset":{"version":"2.0","generator":"https://github.com/mikedh/trimesh"},"accessors":[{"componentType":5125,"type":"SCALAR","bufferView":0,"count":165216,"max":[16870],"min":[0]},{"componentType":5126,"type":"VEC3","byteOffset":0,"bufferView":1,"count":16871,"max":[1263.5556640625,29.810590744018555,716.4036865234375],"min":[-991.7996826171875,-0.18940876424312592,-1106.478759765625]}],"meshes":[{"name":"geometry_0","extras":{},"primitives":[{"attributes":{"POSITION":1},"indices":0,"mode":4}]}],"nodes":[{"name":"world","children":[1]},{"name":"geometry_0","mesh":0}],"buffers":[{"uri":"gltf_buffer_0.bin","byteLength":660864},{"uri":"gltf_buffer_1.bin","byteLength":202452}],"bufferViews":[{"buffer":0,"byteOffset":0,"byteLength":660864},{"buffer":1,"byteOffset":0,"byteLength":202452}]}