{"scene":0,"scenes":[{"nodes":[0]}],"asset":{"version":"2.0","generator":"https://github.com/mikedh/trimesh"},"accessors":[{"componentType":5125,"type":"SCALAR","bufferView":0,"count":616188,"max":[56242],"min":[0]},{"componentType":5126,"type":"VEC3","byteOffset":0,"bufferView":1,"count":56243,"max":[1319.380126953125,141.92626953125,1116.7421875],"min":[-1282.7618408203125,-0.07372437417507172,-1103.217529296875]}],"meshes":[{"name":"geometry_0","extras":{},"primitives":[{"attributes":{"POSITION":1},"indices":0,"mode":4}]}],"nodes":[{"name":"world","children":[1]},{"name":"geometry_0","mesh":0}],"buffers":[{"uri":"gltf_buffer_0.bin","byteLength":2464752},{"uri":"gltf_buffer_1.bin","byteLength":674916}],"bufferViews":[{"buffer":0,"byteOffset":0,"byteLength":2464752},{"buffer":1,"byteOffset":0,"byteLength":674916}]}