{"scene":0,"scenes":[{"nodes":[0]}],"asset":{"version":"2.0","generator":"https://github.com/mikedh/trimesh"},"accessors":[{"componentType":5125,"type":"SCALAR","bufferView":0,"count":73020,"max":[7036],"min":[0]},{"componentType":5126,"type":"VEC3","byteOffset":0,"bufferView":1,"count":7037,"max":[884.1774291992188,71.7704849243164,911.6176147460938],"min":[-974.33837890625,-0.2295154184103012,-793.9503784179688]}],"meshes":[{"name":"geometry_0","extras":{},"primitives":[{"attributes":{"POSITION":1},"indices":0,"mode":4}]}],"nodes":[{"name":"world","children":[1]},{"name":"geometry_0","mesh":0}],"buffers":[{"uri":"gltf_buffer_0.bin","byteLength":292080},{"uri":"gltf_buffer_1.bin","byteLength":84444}],"bufferViews":[{"buffer":0,"byteOffset":0,"byteLength":292080},{"buffer":1,"byteOffset":0,"byteLength":84444}]}