{"scene":0,"scenes":[{"nodes":[0]}],"asset":{"version":"2.0","generator":"https://github.com/mikedh/trimesh"},"accessors":[{"componentType":5125,"type":"SCALAR","bufferView":0,"count":6996,"max":[1189],"min":[0]},{"componentType":5126,"type":"VEC3","byteOffset":0,"bufferView":1,"count":1190,"max":[903.7051391601562,4.0,794.1332397460938],"min":[-885.3805541992188,-4.0,-1062.994873046875]}],"meshes":[{"name":"geometry_0","extras":{},"primitives":[{"attributes":{"POSITION":1},"indices":0,"mode":4}]}],"nodes":[{"name":"world","children":[1]},{"name":"geometry_0","mesh":0}],"buffers":[{"uri":"gltf_buffer_0.bin","byteLength":27984},{"uri":"gltf_buffer_1.bin","byteLength":14280}],"bufferViews":[{"buffer":0,"byteOffset":0,"byteLength":27984},{"buffer":1,"byteOffset":0,"byteLength":14280}]}