{"scene":0,"scenes":[{"nodes":[0]}],"asset":{"version":"2.0","generator":"https://github.com/mikedh/trimesh"},"accessors":[{"componentType":5125,"type":"SCALAR","bufferView":0,"count":142848,"max":[13549],"min":[0]},{"componentType":5126,"type":"VEC3","byteOffset":0,"bufferView":1,"count":13550,"max":[766.49462890625,44.24115753173828,604.8614501953125],"min":[-650.6133422851562,-0.7588430047035217,-483.5507507324219]}],"meshes":[{"name":"geometry_0","extras":{},"primitives":[{"attributes":{"POSITION":1},"indices":0,"mode":4}]}],"nodes":[{"name":"world","children":[1]},{"name":"geometry_0","mesh":0}],"buffers":[{"uri":"gltf_buffer_0.bin","byteLength":571392},{"uri":"gltf_buffer_1.bin","byteLength":162600}],"bufferViews":[{"buffer":0,"byteOffset":0,"byteLength":571392},{"buffer":1,"byteOffset":0,"byteLength":162600}]}