{"scene":0,"scenes":[{"nodes":[0]}],"asset":{"version":"2.0","generator":"https://github.com/mikedh/trimesh"},"accessors":[{"componentType":5125,"type":"SCALAR","bufferView":0,"count":70872,"max":[6649],"min":[0]},{"componentType":5126,"type":"VEC3","byteOffset":0,"bufferView":1,"count":6650,"max":[720.0757446289062,478.1711730957031,43.91086959838867],"min":[-697.0322265625,-609.2410278320312,-2.089129686355591]}],"meshes":[{"name":"geometry_0","extras":{},"primitives":[{"attributes":{"POSITION":1},"indices":0,"mode":4}]}],"nodes":[{"name":"world","children":[1]},{"name":"geometry_0","mesh":0}],"buffers":[{"uri":"gltf_buffer_0.bin","byteLength":283488},{"uri":"gltf_buffer_1.bin","byteLength":79800}],"bufferViews":[{"buffer":0,"byteOffset":0,"byteLength":283488},{"buffer":1,"byteOffset":0,"byteLength":79800}]}