{"scene":0,"scenes":[{"nodes":[0]}],"asset":{"version":"2.0","generator":"https://github.com/mikedh/trimesh"},"accessors":[{"componentType":5125,"type":"SCALAR","bufferView":0,"count":54768,"max":[5305],"min":[0]},{"componentType":5126,"type":"VEC3","byteOffset":0,"bufferView":1,"count":5306,"max":[867.6517944335938,625.4378051757812,24.749906539916992],"min":[-875.73291015625,-650.947998046875,-1.2500944137573242]}],"meshes":[{"name":"geometry_0","extras":{},"primitives":[{"attributes":{"POSITION":1},"indices":0,"mode":4}]}],"nodes":[{"name":"world","children":[1]},{"name":"geometry_0","mesh":0}],"buffers":[{"uri":"gltf_buffer_0.bin","byteLength":219072},{"uri":"gltf_buffer_1.bin","byteLength":63672}],"bufferViews":[{"buffer":0,"byteOffset":0,"byteLength":219072},{"buffer":1,"byteOffset":0,"byteLength":63672}]}