{"scene":0,"scenes":[{"nodes":[0]}],"asset":{"version":"2.0","generator":"https://github.com/mikedh/trimesh"},"accessors":[{"componentType":5125,"type":"SCALAR","bufferView":0,"count":25704,"max":[3204],"min":[0]},{"componentType":5126,"type":"VEC3","byteOffset":0,"bufferView":1,"count":3205,"max":[842.3800659179688,284.9700927734375,565.6975708007812],"min":[-818.2838745117188,-21.929893493652344,-660.6080322265625]}],"meshes":[{"name":"geometry_0","extras":{},"primitives":[{"attributes":{"POSITION":1},"indices":0,"mode":4}]}],"nodes":[{"name":"world","children":[1]},{"name":"geometry_0","mesh":0}],"buffers":[{"uri":"gltf_buffer_0.bin","byteLength":102816},{"uri":"gltf_buffer_1.bin","byteLength":38460}],"bufferViews":[{"buffer":0,"byteOffset":0,"byteLength":102816},{"buffer":1,"byteOffset":0,"byteLength":38460}]}