{"scene":0,"scenes":[{"nodes":[0]}],"asset":{"version":"2.0","generator":"https://github.com/mikedh/trimesh"},"accessors":[{"componentType":5125,"type":"SCALAR","bufferView":0,"count":56724,"max":[6386],"min":[0]},{"componentType":5126,"type":"VEC3","byteOffset":0,"bufferView":1,"count":6387,"max":[1016.8434448242188,236.02745056152344,738.171142578125],"min":[-875.7059326171875,-10.972550392150879,-709.1652221679688]}],"meshes":[{"name":"geometry_0","extras":{},"primitives":[{"attributes":{"POSITION":1},"indices":0,"mode":4}]}],"nodes":[{"name":"world","children":[1]},{"name":"geometry_0","mesh":0}],"buffers":[{"uri":"gltf_buffer_0.bin","byteLength":226896},{"uri":"gltf_buffer_1.bin","byteLength":76644}],"bufferViews":[{"buffer":0,"byteOffset":0,"byteLength":226896},{"buffer":1,"byteOffset":0,"byteLength":76644}]}