{"scene":0,"scenes":[{"nodes":[0]}],"asset":{"version":"2.0","generator":"https://github.com/mikedh/trimesh"},"accessors":[{"componentType":5125,"type":"SCALAR","bufferView":0,"count":28008,"max":[5179],"min":[0]},{"componentType":5126,"type":"VEC3","byteOffset":0,"bufferView":1,"count":5180,"max":[729.1453857421875,47.28816604614258,775.0947265625],"min":[-598.3090209960938,-8.711833000183105,-880.5819702148438]}],"meshes":[{"name":"geometry_0","extras":{},"primitives":[{"attributes":{"POSITION":1},"indices":0,"mode":4}]}],"nodes":[{"name":"world","children":[1]},{"name":"geometry_0","mesh":0}],"buffers":[{"uri":"gltf_buffer_0.bin","byteLength":112032},{"uri":"gltf_buffer_1.bin","byteLength":62160}],"bufferViews":[{"buffer":0,"byteOffset":0,"byteLength":112032},{"buffer":1,"byteOffset":0,"byteLength":62160}]}