{"scene":0,"scenes":[{"nodes":[0]}],"asset":{"version":"2.0","generator":"https://github.com/mikedh/trimesh"},"accessors":[{"componentType":5125,"type":"SCALAR","bufferView":0,"count":83760,"max":[8966],"min":[0]},{"componentType":5126,"type":"VEC3","byteOffset":0,"bufferView":1,"count":8967,"max":[618.3428955078125,258.3075256347656,695.94189453125],"min":[-820.9461669921875,-0.6924880146980286,-667.956787109375]}],"meshes":[{"name":"geometry_0","extras":{},"primitives":[{"attributes":{"POSITION":1},"indices":0,"mode":4}]}],"nodes":[{"name":"world","children":[1]},{"name":"geometry_0","mesh":0}],"buffers":[{"uri":"gltf_buffer_0.bin","byteLength":335040},{"uri":"gltf_buffer_1.bin","byteLength":107604}],"bufferViews":[{"buffer":0,"byteOffset":0,"byteLength":335040},{"buffer":1,"byteOffset":0,"byteLength":107604}]}