{"scene":0,"scenes":[{"nodes":[0]}],"asset":{"version":"2.0","generator":"https://github.com/mikedh/trimesh"},"accessors":[{"componentType":5125,"type":"SCALAR","bufferView":0,"count":105720,"max":[10167],"min":[0]},{"componentType":5126,"type":"VEC3","byteOffset":0,"bufferView":1,"count":10168,"max":[604.4883422851562,43.07902145385742,490.8141784667969],"min":[-574.56494140625,-0.9209775924682617,-501.9561767578125]}],"meshes":[{"name":"geometry_0","extras":{},"primitives":[{"attributes":{"POSITION":1},"indices":0,"mode":4}]}],"nodes":[{"name":"world","children":[1]},{"name":"geometry_0","mesh":0}],"buffers":[{"uri":"gltf_buffer_0.bin","byteLength":422880},{"uri":"gltf_buffer_1.bin","byteLength":122016}],"bufferViews":[{"buffer":0,"byteOffset":0,"byteLength":422880},{"buffer":1,"byteOffset":0,"byteLength":122016}]}