{"scene":0,"scenes":[{"nodes":[0]}],"asset":{"version":"2.0","generator":"https://github.com/mikedh/trimesh"},"accessors":[{"componentType":5125,"type":"SCALAR","bufferView":0,"count":71460,"max":[7488],"min":[0]},{"componentType":5126,"type":"VEC3","byteOffset":0,"bufferView":1,"count":7489,"max":[575.0791015625,36.7031135559082,588.6893920898438],"min":[-641.3953857421875,-0.2968854308128357,-614.9500732421875]}],"meshes":[{"name":"geometry_0","extras":{},"primitives":[{"attributes":{"POSITION":1},"indices":0,"mode":4}]}],"nodes":[{"name":"world","children":[1]},{"name":"geometry_0","mesh":0}],"buffers":[{"uri":"gltf_buffer_0.bin","byteLength":285840},{"uri":"gltf_buffer_1.bin","byteLength":89868}],"bufferViews":[{"buffer":0,"byteOffset":0,"byteLength":285840},{"buffer":1,"byteOffset":0,"byteLength":89868}]}