{"scene":0,"scenes":[{"nodes":[0]}],"asset":{"version":"2.0","generator":"https://github.com/mikedh/trimesh"},"accessors":[{"componentType":5125,"type":"SCALAR","bufferView":0,"count":108444,"max":[11360],"min":[0]},{"componentType":5126,"type":"VEC3","byteOffset":0,"bufferView":1,"count":11361,"max":[541.404296875,45.896060943603516,687.9900512695312],"min":[-1568.86669921875,-0.10393728315830231,-1380.016357421875]}],"meshes":[{"name":"geometry_0","extras":{},"primitives":[{"attributes":{"POSITION":1},"indices":0,"mode":4}]}],"nodes":[{"name":"world","children":[1]},{"name":"geometry_0","mesh":0}],"buffers":[{"uri":"gltf_buffer_0.bin","byteLength":433776},{"uri":"gltf_buffer_1.bin","byteLength":136332}],"bufferViews":[{"buffer":0,"byteOffset":0,"byteLength":433776},{"buffer":1,"byteOffset":0,"byteLength":136332}]}