{"scene":0,"scenes":[{"nodes":[0]}],"asset":{"version":"2.0","generator":"https://github.com/mikedh/trimesh"},"accessors":[{"componentType":5125,"type":"SCALAR","bufferView":0,"count":196740,"max":[18028],"min":[0]},{"componentType":5126,"type":"VEC3","byteOffset":0,"bufferView":1,"count":18029,"max":[599.8892822265625,32.94927978515625,521.3855590820312],"min":[-726.9791259765625,-0.050718605518341064,-604.2907104492188]}],"meshes":[{"name":"geometry_0","extras":{},"primitives":[{"attributes":{"POSITION":1},"indices":0,"mode":4}]}],"nodes":[{"name":"world","children":[1]},{"name":"geometry_0","mesh":0}],"buffers":[{"uri":"gltf_buffer_0.bin","byteLength":786960},{"uri":"gltf_buffer_1.bin","byteLength":216348}],"bufferViews":[{"buffer":0,"byteOffset":0,"byteLength":786960},{"buffer":1,"byteOffset":0,"byteLength":216348}]}