{"scene":0,"scenes":[{"nodes":[0]}],"asset":{"version":"2.0","generator":"https://github.com/mikedh/trimesh"},"accessors":[{"componentType":5125,"type":"SCALAR","bufferView":0,"count":28032,"max":[2886],"min":[0]},{"componentType":5126,"type":"VEC3","byteOffset":0,"bufferView":1,"count":2887,"max":[529.2525024414062,14.96804428100586,646.7520751953125],"min":[-589.9387817382812,-0.0319555401802063,-606.99951171875]}],"meshes":[{"name":"geometry_0","extras":{},"primitives":[{"attributes":{"POSITION":1},"indices":0,"mode":4}]}],"nodes":[{"name":"world","children":[1]},{"name":"geometry_0","mesh":0}],"buffers":[{"uri":"gltf_buffer_0.bin","byteLength":112128},{"uri":"gltf_buffer_1.bin","byteLength":34644}],"bufferViews":[{"buffer":0,"byteOffset":0,"byteLength":112128},{"buffer":1,"byteOffset":0,"byteLength":34644}]}