{"scene":0,"scenes":[{"nodes":[0]}],"asset":{"version":"2.0","generator":"https://github.com/mikedh/trimesh"},"accessors":[{"componentType":5125,"type":"SCALAR","bufferView":0,"count":70092,"max":[7262],"min":[0]},{"componentType":5126,"type":"VEC3","byteOffset":0,"bufferView":1,"count":7263,"max":[824.9671020507812,260.03057861328125,815.7095336914062],"min":[-730.0770263671875,-2.9694340229034424,-795.4568481445312]}],"meshes":[{"name":"geometry_0","extras":{},"primitives":[{"attributes":{"POSITION":1},"indices":0,"mode":4}]}],"nodes":[{"name":"world","children":[1]},{"name":"geometry_0","mesh":0}],"buffers":[{"uri":"gltf_buffer_0.bin","byteLength":280368},{"uri":"gltf_buffer_1.bin","byteLength":87156}],"bufferViews":[{"buffer":0,"byteOffset":0,"byteLength":280368},{"buffer":1,"byteOffset":0,"byteLength":87156}]}