{"scene":0,"scenes":[{"nodes":[0]}],"asset":{"version":"2.0","generator":"https://github.com/mikedh/trimesh"},"accessors":[{"componentType":5125,"type":"SCALAR","bufferView":0,"count":314172,"max":[31591],"min":[0]},{"componentType":5126,"type":"VEC3","byteOffset":0,"bufferView":1,"count":31592,"max":[879.9407958984375,9.984929084777832,1358.5235595703125],"min":[-1219.8189697265625,-0.015070921741425991,-785.12255859375]}],"meshes":[{"name":"geometry_0","extras":{},"primitives":[{"attributes":{"POSITION":1},"indices":0,"mode":4}]}],"nodes":[{"name":"world","children":[1]},{"name":"geometry_0","mesh":0}],"buffers":[{"uri":"gltf_buffer_0.bin","byteLength":1256688},{"uri":"gltf_buffer_1.bin","byteLength":379104}],"bufferViews":[{"buffer":0,"byteOffset":0,"byteLength":1256688},{"buffer":1,"byteOffset":0,"byteLength":379104}]}