{"scene":0,"scenes":[{"nodes":[0]}],"asset":{"version":"2.0","generator":"https://github.com/mikedh/trimesh"},"accessors":[{"componentType":5125,"type":"SCALAR","bufferView":0,"count":20340,"max":[2453],"min":[0]},{"componentType":5126,"type":"VEC3","byteOffset":0,"bufferView":1,"count":2454,"max":[870.1849365234375,210.3016815185547,772.9924926757812],"min":[-902.9093017578125,-11.198315620422363,-546.5426635742188]}],"meshes":[{"name":"geometry_0","extras":{},"primitives":[{"attributes":{"POSITION":1},"indices":0,"mode":4}]}],"nodes":[{"name":"world","children":[1]},{"name":"geometry_0","mesh":0}],"buffers":[{"uri":"gltf_buffer_0.bin","byteLength":81360},{"uri":"gltf_buffer_1.bin","byteLength":29448}],"bufferViews":[{"buffer":0,"byteOffset":0,"byteLength":81360},{"buffer":1,"byteOffset":0,"byteLength":29448}]}