{"scene":0,"scenes":[{"nodes":[0]}],"asset":{"version":"2.0","generator":"https://github.com/mikedh/trimesh"},"accessors":[{"componentType":5125,"type":"SCALAR","bufferView":0,"count":195492,"max":[19811],"min":[0]},{"componentType":5126,"type":"VEC3","byteOffset":0,"bufferView":1,"count":19812,"max":[1019.395751953125,19.831851959228516,997.9913940429688],"min":[-961.290283203125,-0.16814784705638885,-877.1712036132812]}],"meshes":[{"name":"geometry_0","extras":{},"primitives":[{"attributes":{"POSITION":1},"indices":0,"mode":4}]}],"nodes":[{"name":"world","children":[1]},{"name":"geometry_0","mesh":0}],"buffers":[{"uri":"gltf_buffer_0.bin","byteLength":781968},{"uri":"gltf_buffer_1.bin","byteLength":237744}],"bufferViews":[{"buffer":0,"byteOffset":0,"byteLength":781968},{"buffer":1,"byteOffset":0,"byteLength":237744}]}