{"scene":0,"scenes":[{"nodes":[0]}],"asset":{"version":"2.0","generator":"https://github.com/mikedh/trimesh"},"accessors":[{"componentType":5125,"type":"SCALAR","bufferView":0,"count":57708,"max":[5931],"min":[0]},{"componentType":5126,"type":"VEC3","byteOffset":0,"bufferView":1,"count":5932,"max":[1176.3958740234375,4.996628284454346,819.5331420898438],"min":[-977.0230102539062,-0.0033715441823005676,-918.8311767578125]}],"meshes":[{"name":"geometry_0","extras":{},"primitives":[{"attributes":{"POSITION":1},"indices":0,"mode":4}]}],"nodes":[{"name":"world","children":[1]},{"name":"geometry_0","mesh":0}],"buffers":[{"uri":"gltf_buffer_0.bin","byteLength":230832},{"uri":"gltf_buffer_1.bin","byteLength":71184}],"bufferViews":[{"buffer":0,"byteOffset":0,"byteLength":230832},{"buffer":1,"byteOffset":0,"byteLength":71184}]}