{"scene":0,"scenes":[{"nodes":[0]}],"asset":{"version":"2.0","generator":"https://github.com/mikedh/trimesh"},"accessors":[{"componentType":5125,"type":"SCALAR","bufferView":0,"count":150132,"max":[15546],"min":[0]},{"componentType":5126,"type":"VEC3","byteOffset":0,"bufferView":1,"count":15547,"max":[1615.057373046875,34.8353157043457,934.8600463867188],"min":[-735.4827880859375,-0.16468241810798645,-1040.7418212890625]}],"meshes":[{"name":"geometry_0","extras":{},"primitives":[{"attributes":{"POSITION":1},"indices":0,"mode":4}]}],"nodes":[{"name":"world","children":[1]},{"name":"geometry_0","mesh":0}],"buffers":[{"uri":"gltf_buffer_0.bin","byteLength":600528},{"uri":"gltf_buffer_1.bin","byteLength":186564}],"bufferViews":[{"buffer":0,"byteOffset":0,"byteLength":600528},{"buffer":1,"byteOffset":0,"byteLength":186564}]}