{"scene":0,"scenes":[{"nodes":[0]}],"asset":{"version":"2.0","generator":"https://github.com/mikedh/trimesh"},"accessors":[{"componentType":5125,"type":"SCALAR","bufferView":0,"count":130680,"max":[12866],"min":[0]},{"componentType":5126,"type":"VEC3","byteOffset":0,"bufferView":1,"count":12867,"max":[924.5537719726562,64.77268981933594,907.9639892578125],"min":[-1085.276123046875,-1.2273101806640625,-662.4097900390625]}],"meshes":[{"name":"geometry_0","extras":{},"primitives":[{"attributes":{"POSITION":1},"indices":0,"mode":4}]}],"nodes":[{"name":"world","children":[1]},{"name":"geometry_0","mesh":0}],"buffers":[{"uri":"gltf_buffer_0.bin","byteLength":522720},{"uri":"gltf_buffer_1.bin","byteLength":154404}],"bufferViews":[{"buffer":0,"byteOffset":0,"byteLength":522720},{"buffer":1,"byteOffset":0,"byteLength":154404}]}