{"scene":0,"scenes":[{"nodes":[0]}],"asset":{"version":"2.0","generator":"https://github.com/mikedh/trimesh"},"accessors":[{"componentType":5125,"type":"SCALAR","bufferView":0,"count":224112,"max":[43478],"min":[0]},{"componentType":5126,"type":"VEC3","byteOffset":0,"bufferView":1,"count":43479,"max":[1551.91455078125,135.65818786621094,1127.4349365234375],"min":[-587.3637084960938,-9.871816635131836,-1055.27783203125]}],"meshes":[{"name":"geometry_0","extras":{},"primitives":[{"attributes":{"POSITION":1},"indices":0,"mode":4}]}],"nodes":[{"name":"world","children":[1]},{"name":"geometry_0","mesh":0}],"buffers":[{"uri":"gltf_buffer_0.bin","byteLength":896448},{"uri":"gltf_buffer_1.bin","byteLength":521748}],"bufferViews":[{"buffer":0,"byteOffset":0,"byteLength":896448},{"buffer":1,"byteOffset":0,"byteLength":521748}]}