{"scene":0,"scenes":[{"nodes":[0]}],"asset":{"version":"2.0","generator":"https://github.com/mikedh/trimesh"},"accessors":[{"componentType":5125,"type":"SCALAR","bufferView":0,"count":120432,"max":[12224],"min":[0]},{"componentType":5126,"type":"VEC3","byteOffset":0,"bufferView":1,"count":12225,"max":[431.3398132324219,15.980396270751953,572.5667114257812],"min":[-674.3145141601562,-0.019603829830884933,-398.7280578613281]}],"meshes":[{"name":"geometry_0","extras":{},"primitives":[{"attributes":{"POSITION":1},"indices":0,"mode":4}]}],"nodes":[{"name":"world","children":[1]},{"name":"geometry_0","mesh":0}],"buffers":[{"uri":"gltf_buffer_0.bin","byteLength":481728},{"uri":"gltf_buffer_1.bin","byteLength":146700}],"bufferViews":[{"buffer":0,"byteOffset":0,"byteLength":481728},{"buffer":1,"byteOffset":0,"byteLength":146700}]}