{"scene":0,"scenes":[{"nodes":[0]}],"asset":{"version":"2.0","generator":"https://github.com/mikedh/trimesh"},"accessors":[{"componentType":5125,"type":"SCALAR","bufferView":0,"count":127956,"max":[12864],"min":[0]},{"componentType":5126,"type":"VEC3","byteOffset":0,"bufferView":1,"count":12865,"max":[1255.813232421875,93.97075653076172,975.2971801757812],"min":[-898.7426147460938,-0.029244769364595413,-905.8007202148438]}],"meshes":[{"name":"geometry_0","extras":{},"primitives":[{"attributes":{"POSITION":1},"indices":0,"mode":4}]}],"nodes":[{"name":"world","children":[1]},{"name":"geometry_0","mesh":0}],"buffers":[{"uri":"gltf_buffer_0.bin","byteLength":511824},{"uri":"gltf_buffer_1.bin","byteLength":154380}],"bufferViews":[{"buffer":0,"byteOffset":0,"byteLength":511824},{"buffer":1,"byteOffset":0,"byteLength":154380}]}