{"scene":0,"scenes":[{"nodes":[0]}],"asset":{"version":"2.0","generator":"https://github.com/mikedh/trimesh"},"accessors":[{"componentType":5125,"type":"SCALAR","bufferView":0,"count":384,"max":[65],"min":[0]},{"componentType":5126,"type":"VEC3","byteOffset":0,"bufferView":1,"count":66,"max":[15000.0,3268.0,15000.0],"min":[-15000.0,0.0,-15000.0]}],"meshes":[{"name":"geometry_0","extras":{"shape":"cone","radius":15000.0,"height":3268.0,"processed":true},"primitives":[{"attributes":{"POSITION":1},"indices":0,"mode":4}]}],"nodes":[{"name":"world","children":[1]},{"name":"geometry_0","mesh":0}],"buffers":[{"uri":"gltf_buffer_0.bin","byteLength":1536},{"uri":"gltf_buffer_1.bin","byteLength":792}],"bufferViews":[{"buffer":0,"byteOffset":0,"byteLength":1536},{"buffer":1,"byteOffset":0,"byteLength":792}]}