{"scene":0,"scenes":[{"nodes":[0]}],"asset":{"version":"2.0","generator":"https://github.com/mikedh/trimesh"},"accessors":[{"componentType":5125,"type":"SCALAR","bufferView":0,"count":60240,"max":[6717],"min":[0]},{"componentType":5126,"type":"VEC3","byteOffset":0,"bufferView":1,"count":6718,"max":[855.6333618164062,537.95458984375,852.3102416992188],"min":[-844.4910278320312,-15.045430183410645,-902.1509399414062]}],"meshes":[{"name":"geometry_0","extras":{},"primitives":[{"attributes":{"POSITION":1},"indices":0,"mode":4}]}],"nodes":[{"name":"world","children":[1]},{"name":"geometry_0","mesh":0}],"buffers":[{"uri":"gltf_buffer_0.bin","byteLength":240960},{"uri":"gltf_buffer_1.bin","byteLength":80616}],"bufferViews":[{"buffer":0,"byteOffset":0,"byteLength":240960},{"buffer":1,"byteOffset":0,"byteLength":80616}]}