{"scene":0,"scenes":[{"nodes":[0]}],"asset":{"version":"2.0","generator":"https://github.com/mikedh/trimesh"},"accessors":[{"componentType":5125,"type":"SCALAR","bufferView":0,"count":281328,"max":[28697],"min":[0]},{"componentType":5126,"type":"VEC3","byteOffset":0,"bufferView":1,"count":28698,"max":[664.71875,11.644848823547363,945.3629150390625],"min":[-945.3414916992188,-0.005151620600372553,-973.7877807617188]}],"meshes":[{"name":"geometry_0","extras":{},"primitives":[{"attributes":{"POSITION":1},"indices":0,"mode":4}]}],"nodes":[{"name":"world","children":[1]},{"name":"geometry_0","mesh":0}],"buffers":[{"uri":"gltf_buffer_0.bin","byteLength":1125312},{"uri":"gltf_buffer_1.bin","byteLength":344376}],"bufferViews":[{"buffer":0,"byteOffset":0,"byteLength":1125312},{"buffer":1,"byteOffset":0,"byteLength":344376}]}