{"scene":0,"scenes":[{"nodes":[0]}],"asset":{"version":"2.0","generator":"https://github.com/mikedh/trimesh"},"accessors":[{"componentType":5125,"type":"SCALAR","bufferView":0,"count":191196,"max":[18134],"min":[0]},{"componentType":5126,"type":"VEC3","byteOffset":0,"bufferView":1,"count":18135,"max":[959.6231689453125,74.23197174072266,579.9231567382812],"min":[-787.296875,-0.7680255770683289,-645.1156005859375]}],"meshes":[{"name":"geometry_0","extras":{},"primitives":[{"attributes":{"POSITION":1},"indices":0,"mode":4}]}],"nodes":[{"name":"world","children":[1]},{"name":"geometry_0","mesh":0}],"buffers":[{"uri":"gltf_buffer_0.bin","byteLength":764784},{"uri":"gltf_buffer_1.bin","byteLength":217620}],"bufferViews":[{"buffer":0,"byteOffset":0,"byteLength":764784},{"buffer":1,"byteOffset":0,"byteLength":217620}]}