{"scene":0,"scenes":[{"nodes":[0]}],"asset":{"version":"2.0","generator":"https://github.com/mikedh/trimesh"},"accessors":[{"componentType":5125,"type":"SCALAR","bufferView":0,"count":69060,"max":[6354],"min":[0]},{"componentType":5126,"type":"VEC3","byteOffset":0,"bufferView":1,"count":6355,"max":[971.1466064453125,648.7900390625,39.3247184753418],"min":[-775.7734375,-575.2487182617188,-1.6752796173095703]}],"meshes":[{"name":"geometry_0","extras":{},"primitives":[{"attributes":{"POSITION":1},"indices":0,"mode":4}]}],"nodes":[{"name":"world","children":[1]},{"name":"geometry_0","mesh":0}],"buffers":[{"uri":"gltf_buffer_0.bin","byteLength":276240},{"uri":"gltf_buffer_1.bin","byteLength":76260}],"bufferViews":[{"buffer":0,"byteOffset":0,"byteLength":276240},{"buffer":1,"byteOffset":0,"byteLength":76260}]}