{"scene":0,"scenes":[{"nodes":[0]}],"asset":{"version":"2.0","generator":"https://github.com/mikedh/trimesh"},"accessors":[{"componentType":5125,"type":"SCALAR","bufferView":0,"count":60840,"max":[6035],"min":[0]},{"componentType":5126,"type":"VEC3","byteOffset":0,"bufferView":1,"count":6036,"max":[511.6761169433594,309.0295715332031,26.87491798400879],"min":[-489.2369689941406,-456.0588073730469,-0.1250828355550766]}],"meshes":[{"name":"geometry_0","extras":{},"primitives":[{"attributes":{"POSITION":1},"indices":0,"mode":4}]}],"nodes":[{"name":"world","children":[1]},{"name":"geometry_0","mesh":0}],"buffers":[{"uri":"gltf_buffer_0.bin","byteLength":243360},{"uri":"gltf_buffer_1.bin","byteLength":72432}],"bufferViews":[{"buffer":0,"byteOffset":0,"byteLength":243360},{"buffer":1,"byteOffset":0,"byteLength":72432}]}