{"scene":0,"scenes":[{"nodes":[0]}],"asset":{"version":"2.0","generator":"https://github.com/mikedh/trimesh"},"accessors":[{"componentType":5125,"type":"SCALAR","bufferView":0,"count":21588,"max":[2430],"min":[0]},{"componentType":5126,"type":"VEC3","byteOffset":0,"bufferView":1,"count":2431,"max":[650.013427734375,23.41085433959961,528.4096069335938],"min":[-716.6985473632812,-1.0891456604003906,-478.58050537109375]}],"meshes":[{"name":"geometry_0","extras":{},"primitives":[{"attributes":{"POSITION":1},"indices":0,"mode":4}]}],"nodes":[{"name":"world","children":[1]},{"name":"geometry_0","mesh":0}],"buffers":[{"uri":"gltf_buffer_0.bin","byteLength":86352},{"uri":"gltf_buffer_1.bin","byteLength":29172}],"bufferViews":[{"buffer":0,"byteOffset":0,"byteLength":86352},{"buffer":1,"byteOffset":0,"byteLength":29172}]}