{"scene":0,"scenes":[{"nodes":[0]}],"asset":{"version":"2.0","generator":"https://github.com/mikedh/trimesh"},"accessors":[{"componentType":5125,"type":"SCALAR","bufferView":0,"count":143712,"max":[15195],"min":[0]},{"componentType":5126,"type":"VEC3","byteOffset":0,"bufferView":1,"count":15196,"max":[412.12347412109375,665.8336791992188,11.47879695892334],"min":[-722.5186767578125,-492.5489501953125,-0.021202947944402695]}],"meshes":[{"name":"geometry_0","extras":{},"primitives":[{"attributes":{"POSITION":1},"indices":0,"mode":4}]}],"nodes":[{"name":"world","children":[1]},{"name":"geometry_0","mesh":0}],"buffers":[{"uri":"gltf_buffer_0.bin","byteLength":574848},{"uri":"gltf_buffer_1.bin","byteLength":182352}],"bufferViews":[{"buffer":0,"byteOffset":0,"byteLength":574848},{"buffer":1,"byteOffset":0,"byteLength":182352}]}