{"scene":0,"scenes":[{"nodes":[0]}],"asset":{"version":"2.0","generator":"https://github.com/mikedh/trimesh"},"accessors":[{"componentType":5125,"type":"SCALAR","bufferView":0,"count":28128,"max":[2674],"min":[0]},{"componentType":5126,"type":"VEC3","byteOffset":0,"bufferView":1,"count":2675,"max":[1368.429931640625,11.982002258300781,888.36669921875],"min":[-1091.6414794921875,-0.017997751012444496,-1017.0670166015625]}],"meshes":[{"name":"geometry_0","extras":{},"primitives":[{"attributes":{"POSITION":1},"indices":0,"mode":4}]}],"nodes":[{"name":"world","children":[1]},{"name":"geometry_0","mesh":0}],"buffers":[{"uri":"gltf_buffer_0.bin","byteLength":112512},{"uri":"gltf_buffer_1.bin","byteLength":32100}],"bufferViews":[{"buffer":0,"byteOffset":0,"byteLength":112512},{"buffer":1,"byteOffset":0,"byteLength":32100}]}