{"scene":0,"scenes":[{"nodes":[0]}],"asset":{"version":"2.0","generator":"https://github.com/mikedh/trimesh"},"accessors":[{"componentType":5125,"type":"SCALAR","bufferView":0,"count":82008,"max":[8028],"min":[0]},{"componentType":5126,"type":"VEC3","byteOffset":0,"bufferView":1,"count":8029,"max":[1669.049072265625,104.49134063720703,605.6671142578125],"min":[-1039.78759765625,-0.5086560249328613,-918.9197387695312]}],"meshes":[{"name":"geometry_0","extras":{},"primitives":[{"attributes":{"POSITION":1},"indices":0,"mode":4}]}],"nodes":[{"name":"world","children":[1]},{"name":"geometry_0","mesh":0}],"buffers":[{"uri":"gltf_buffer_0.bin","byteLength":328032},{"uri":"gltf_buffer_1.bin","byteLength":96348}],"bufferViews":[{"buffer":0,"byteOffset":0,"byteLength":328032},{"buffer":1,"byteOffset":0,"byteLength":96348}]}