{"scene":0,"scenes":[{"nodes":[0]}],"asset":{"version":"2.0","generator":"https://github.com/mikedh/trimesh"},"accessors":[{"componentType":5125,"type":"SCALAR","bufferView":0,"count":30960,"max":[3775],"min":[0]},{"componentType":5126,"type":"VEC3","byteOffset":0,"bufferView":1,"count":3776,"max":[691.1030883789062,309.2864685058594,768.2254638671875],"min":[-848.1630859375,-5.7135233879089355,-462.1199645996094]}],"meshes":[{"name":"geometry_0","extras":{},"primitives":[{"attributes":{"POSITION":1},"indices":0,"mode":4}]}],"nodes":[{"name":"world","children":[1]},{"name":"geometry_0","mesh":0}],"buffers":[{"uri":"gltf_buffer_0.bin","byteLength":123840},{"uri":"gltf_buffer_1.bin","byteLength":45312}],"bufferViews":[{"buffer":0,"byteOffset":0,"byteLength":123840},{"buffer":1,"byteOffset":0,"byteLength":45312}]}