{"scene":0,"scenes":[{"nodes":[0]}],"asset":{"version":"2.0","generator":"https://github.com/mikedh/trimesh"},"accessors":[{"componentType":5125,"type":"SCALAR","bufferView":0,"count":278928,"max":[28082],"min":[0]},{"componentType":5126,"type":"VEC3","byteOffset":0,"bufferView":1,"count":28083,"max":[663.5677490234375,8.998076438903809,619.2440795898438],"min":[-623.3311767578125,-0.0019234194187447429,-549.0598754882812]}],"meshes":[{"name":"geometry_0","extras":{},"primitives":[{"attributes":{"POSITION":1},"indices":0,"mode":4}]}],"nodes":[{"name":"world","children":[1]},{"name":"geometry_0","mesh":0}],"buffers":[{"uri":"gltf_buffer_0.bin","byteLength":1115712},{"uri":"gltf_buffer_1.bin","byteLength":336996}],"bufferViews":[{"buffer":0,"byteOffset":0,"byteLength":1115712},{"buffer":1,"byteOffset":0,"byteLength":336996}]}