{"scene":0,"scenes":[{"nodes":[0]}],"asset":{"version":"2.0","generator":"https://github.com/mikedh/trimesh"},"accessors":[{"componentType":5125,"type":"SCALAR","bufferView":0,"count":265140,"max":[29998],"min":[0]},{"componentType":5126,"type":"VEC3","byteOffset":0,"bufferView":1,"count":29999,"max":[971.1727294921875,83.65853118896484,750.4216918945312],"min":[-816.0234375,-0.3414691090583801,-1052.14697265625]}],"meshes":[{"name":"geometry_0","extras":{},"primitives":[{"attributes":{"POSITION":1},"indices":0,"mode":4}]}],"nodes":[{"name":"world","children":[1]},{"name":"geometry_0","mesh":0}],"buffers":[{"uri":"gltf_buffer_0.bin","byteLength":1060560},{"uri":"gltf_buffer_1.bin","byteLength":359988}],"bufferViews":[{"buffer":0,"byteOffset":0,"byteLength":1060560},{"buffer":1,"byteOffset":0,"byteLength":359988}]}