{"scene":0,"scenes":[{"nodes":[0]}],"asset":{"version":"2.0","generator":"https://github.com/mikedh/trimesh"},"accessors":[{"componentType":5125,"type":"SCALAR","bufferView":0,"count":120876,"max":[12591],"min":[0]},{"componentType":5126,"type":"VEC3","byteOffset":0,"bufferView":1,"count":12592,"max":[798.7994384765625,55.827877044677734,708.6079711914062],"min":[-801.427490234375,-1.1721233129501343,-869.0711669921875]}],"meshes":[{"name":"geometry_0","extras":{},"primitives":[{"attributes":{"POSITION":1},"indices":0,"mode":4}]}],"nodes":[{"name":"world","children":[1]},{"name":"geometry_0","mesh":0}],"buffers":[{"uri":"gltf_buffer_0.bin","byteLength":483504},{"uri":"gltf_buffer_1.bin","byteLength":151104}],"bufferViews":[{"buffer":0,"byteOffset":0,"byteLength":483504},{"buffer":1,"byteOffset":0,"byteLength":151104}]}