{"scene":0,"scenes":[{"nodes":[0]}],"asset":{"version":"2.0","generator":"https://github.com/mikedh/trimesh"},"accessors":[{"componentType":5125,"type":"SCALAR","bufferView":0,"count":65988,"max":[6673],"min":[0]},{"componentType":5126,"type":"VEC3","byteOffset":0,"bufferView":1,"count":6674,"max":[660.3799438476562,272.7629699707031,576.2740478515625],"min":[-800.3861694335938,-5.237023830413818,-462.2297058105469]}],"meshes":[{"name":"geometry_0","extras":{},"primitives":[{"attributes":{"POSITION":1},"indices":0,"mode":4}]}],"nodes":[{"name":"world","children":[1]},{"name":"geometry_0","mesh":0}],"buffers":[{"uri":"gltf_buffer_0.bin","byteLength":263952},{"uri":"gltf_buffer_1.bin","byteLength":80088}],"bufferViews":[{"buffer":0,"byteOffset":0,"byteLength":263952},{"buffer":1,"byteOffset":0,"byteLength":80088}]}