{"scene":0,"scenes":[{"nodes":[0]}],"asset":{"version":"2.0","generator":"https://github.com/mikedh/trimesh"},"accessors":[{"componentType":5125,"type":"SCALAR","bufferView":0,"count":145512,"max":[14416],"min":[0]},{"componentType":5126,"type":"VEC3","byteOffset":0,"bufferView":1,"count":14417,"max":[850.470458984375,143.39166259765625,798.9215087890625],"min":[-1022.4896240234375,-0.6083350777626038,-799.1099243164062]}],"meshes":[{"name":"geometry_0","extras":{},"primitives":[{"attributes":{"POSITION":1},"indices":0,"mode":4}]}],"nodes":[{"name":"world","children":[1]},{"name":"geometry_0","mesh":0}],"buffers":[{"uri":"gltf_buffer_0.bin","byteLength":582048},{"uri":"gltf_buffer_1.bin","byteLength":173004}],"bufferViews":[{"buffer":0,"byteOffset":0,"byteLength":582048},{"buffer":1,"byteOffset":0,"byteLength":173004}]}