{"scene":0,"scenes":[{"nodes":[0]}],"asset":{"version":"2.0","generator":"https://github.com/mikedh/trimesh"},"accessors":[{"componentType":5125,"type":"SCALAR","bufferView":0,"count":46848,"max":[4951],"min":[0]},{"componentType":5126,"type":"VEC3","byteOffset":0,"bufferView":1,"count":4952,"max":[677.9783935546875,6.990088939666748,372.13262939453125],"min":[-590.9927978515625,-0.009911003522574902,-379.7409362792969]}],"meshes":[{"name":"geometry_0","extras":{},"primitives":[{"attributes":{"POSITION":1},"indices":0,"mode":4}]}],"nodes":[{"name":"world","children":[1]},{"name":"geometry_0","mesh":0}],"buffers":[{"uri":"gltf_buffer_0.bin","byteLength":187392},{"uri":"gltf_buffer_1.bin","byteLength":59424}],"bufferViews":[{"buffer":0,"byteOffset":0,"byteLength":187392},{"buffer":1,"byteOffset":0,"byteLength":59424}]}