{"scene":0,"scenes":[{"nodes":[0]}],"asset":{"version":"2.0","generator":"https://github.com/mikedh/trimesh"},"accessors":[{"componentType":5125,"type":"SCALAR","bufferView":0,"count":773280,"max":[83358],"min":[0]},{"componentType":5126,"type":"VEC3","byteOffset":0,"bufferView":1,"count":83359,"max":[1308.2982177734375,77.97132873535156,1045.5732421875],"min":[-931.8823852539062,-0.02866792306303978,-1096.1204833984375]}],"meshes":[{"name":"geometry_0","extras":{},"primitives":[{"attributes":{"POSITION":1},"indices":0,"mode":4}]}],"nodes":[{"name":"world","children":[1]},{"name":"geometry_0","mesh":0}],"buffers":[{"uri":"gltf_buffer_0.bin","byteLength":3093120},{"uri":"gltf_buffer_1.bin","byteLength":1000308}],"bufferViews":[{"buffer":0,"byteOffset":0,"byteLength":3093120},{"buffer":1,"byteOffset":0,"byteLength":1000308}]}