{"scene":0,"scenes":[{"nodes":[0]}],"asset":{"version":"2.0","generator":"https://github.com/mikedh/trimesh"},"accessors":[{"componentType":5125,"type":"SCALAR","bufferView":0,"count":44244,"max":[6379],"min":[0]},{"componentType":5126,"type":"VEC3","byteOffset":0,"bufferView":1,"count":6380,"max":[466.5551452636719,210.41761779785156,571.5],"min":[-654.5328979492188,-14.582382202148438,-454.1120910644531]}],"meshes":[{"name":"geometry_0","extras":{},"primitives":[{"attributes":{"POSITION":1},"indices":0,"mode":4}]}],"nodes":[{"name":"world","children":[1]},{"name":"geometry_0","mesh":0}],"buffers":[{"uri":"gltf_buffer_0.bin","byteLength":176976},{"uri":"gltf_buffer_1.bin","byteLength":76560}],"bufferViews":[{"buffer":0,"byteOffset":0,"byteLength":176976},{"buffer":1,"byteOffset":0,"byteLength":76560}]}