{"scene":0,"scenes":[{"nodes":[0]}],"asset":{"version":"2.0","generator":"https://github.com/mikedh/trimesh"},"accessors":[{"componentType":5125,"type":"SCALAR","bufferView":0,"count":43368,"max":[6280],"min":[0]},{"componentType":5126,"type":"VEC3","byteOffset":0,"bufferView":1,"count":6281,"max":[906.0504760742188,337.406982421875,672.8346557617188],"min":[-1387.9189453125,-18.593017578125,-930.59130859375]}],"meshes":[{"name":"geometry_0","extras":{},"primitives":[{"attributes":{"POSITION":1},"indices":0,"mode":4}]}],"nodes":[{"name":"world","children":[1]},{"name":"geometry_0","mesh":0}],"buffers":[{"uri":"gltf_buffer_0.bin","byteLength":173472},{"uri":"gltf_buffer_1.bin","byteLength":75372}],"bufferViews":[{"buffer":0,"byteOffset":0,"byteLength":173472},{"buffer":1,"byteOffset":0,"byteLength":75372}]}