{"scene":0,"scenes":[{"nodes":[0]}],"asset":{"version":"2.0","generator":"https://github.com/mikedh/trimesh"},"accessors":[{"componentType":5125,"type":"SCALAR","bufferView":0,"count":64200,"max":[7217],"min":[0]},{"componentType":5126,"type":"VEC3","byteOffset":0,"bufferView":1,"count":7218,"max":[674.6658325195312,43.12045669555664,534.2815551757812],"min":[-549.6522216796875,-0.8795422911643982,-606.0191650390625]}],"meshes":[{"name":"geometry_0","extras":{},"primitives":[{"attributes":{"POSITION":1},"indices":0,"mode":4}]}],"nodes":[{"name":"world","children":[1]},{"name":"geometry_0","mesh":0}],"buffers":[{"uri":"gltf_buffer_0.bin","byteLength":256800},{"uri":"gltf_buffer_1.bin","byteLength":86616}],"bufferViews":[{"buffer":0,"byteOffset":0,"byteLength":256800},{"buffer":1,"byteOffset":0,"byteLength":86616}]}