{"scene":0,"scenes":[{"nodes":[0]}],"asset":{"version":"2.0","generator":"https://github.com/mikedh/trimesh"},"accessors":[{"componentType":5125,"type":"SCALAR","bufferView":0,"count":96024,"max":[10346],"min":[0]},{"componentType":5126,"type":"VEC3","byteOffset":0,"bufferView":1,"count":10347,"max":[1044.800048828125,51.7972526550293,735.55078125],"min":[-801.0443725585938,-0.8027468919754028,-748.716064453125]}],"meshes":[{"name":"geometry_0","extras":{},"primitives":[{"attributes":{"POSITION":1},"indices":0,"mode":4}]}],"nodes":[{"name":"world","children":[1]},{"name":"geometry_0","mesh":0}],"buffers":[{"uri":"gltf_buffer_0.bin","byteLength":384096},{"uri":"gltf_buffer_1.bin","byteLength":124164}],"bufferViews":[{"buffer":0,"byteOffset":0,"byteLength":384096},{"buffer":1,"byteOffset":0,"byteLength":124164}]}