{"scene":0,"scenes":[{"nodes":[0]}],"asset":{"version":"2.0","generator":"https://github.com/mikedh/trimesh"},"accessors":[{"componentType":5125,"type":"SCALAR","bufferView":0,"count":51696,"max":[5178],"min":[0]},{"componentType":5126,"type":"VEC3","byteOffset":0,"bufferView":1,"count":5179,"max":[756.4620971679688,199.04351806640625,1603.0782470703125],"min":[-726.732666015625,-0.9564881324768066,-822.2979125976562]}],"meshes":[{"name":"geometry_0","extras":{},"primitives":[{"attributes":{"POSITION":1},"indices":0,"mode":4}]}],"nodes":[{"name":"world","children":[1]},{"name":"geometry_0","mesh":0}],"buffers":[{"uri":"gltf_buffer_0.bin","byteLength":206784},{"uri":"gltf_buffer_1.bin","byteLength":62148}],"bufferViews":[{"buffer":0,"byteOffset":0,"byteLength":206784},{"buffer":1,"byteOffset":0,"byteLength":62148}]}