{"scene":0,"scenes":[{"nodes":[0]}],"asset":{"version":"2.0","generator":"https://github.com/mikedh/trimesh"},"accessors":[{"componentType":5125,"type":"SCALAR","bufferView":0,"count":265020,"max":[26128],"min":[0]},{"componentType":5126,"type":"VEC3","byteOffset":0,"bufferView":1,"count":26129,"max":[1150.276611328125,97.63524627685547,975.9942626953125],"min":[-947.7803955078125,-0.9647517204284668,-604.5901489257812]}],"meshes":[{"name":"geometry_0","extras":{},"primitives":[{"attributes":{"POSITION":1},"indices":0,"mode":4}]}],"nodes":[{"name":"world","children":[1]},{"name":"geometry_0","mesh":0}],"buffers":[{"uri":"gltf_buffer_0.bin","byteLength":1060080},{"uri":"gltf_buffer_1.bin","byteLength":313548}],"bufferViews":[{"buffer":0,"byteOffset":0,"byteLength":1060080},{"buffer":1,"byteOffset":0,"byteLength":313548}]}