{"scene":0,"scenes":[{"nodes":[0]}],"asset":{"version":"2.0","generator":"https://github.com/mikedh/trimesh"},"accessors":[{"componentType":5125,"type":"SCALAR","bufferView":0,"count":201864,"max":[22099],"min":[0]},{"componentType":5126,"type":"VEC3","byteOffset":0,"bufferView":1,"count":22100,"max":[1122.4920654296875,20.969898223876953,523.395751953125],"min":[-734.5953979492188,-0.030101394280791283,-402.7591857910156]}],"meshes":[{"name":"geometry_0","extras":{},"primitives":[{"attributes":{"POSITION":1},"indices":0,"mode":4}]}],"nodes":[{"name":"world","children":[1]},{"name":"geometry_0","mesh":0}],"buffers":[{"uri":"gltf_buffer_0.bin","byteLength":807456},{"uri":"gltf_buffer_1.bin","byteLength":265200}],"bufferViews":[{"buffer":0,"byteOffset":0,"byteLength":807456},{"buffer":1,"byteOffset":0,"byteLength":265200}]}