{"scene":0,"scenes":[{"nodes":[0]}],"asset":{"version":"2.0","generator":"https://github.com/mikedh/trimesh"},"accessors":[{"componentType":5125,"type":"SCALAR","bufferView":0,"count":319392,"max":[30272],"min":[0]},{"componentType":5126,"type":"VEC3","byteOffset":0,"bufferView":1,"count":30273,"max":[902.7031860351562,84.9517593383789,766.5145874023438],"min":[-904.0127563476562,-0.0482405424118042,-806.67041015625]}],"meshes":[{"name":"geometry_0","extras":{},"primitives":[{"attributes":{"POSITION":1},"indices":0,"mode":4}]}],"nodes":[{"name":"world","children":[1]},{"name":"geometry_0","mesh":0}],"buffers":[{"uri":"gltf_buffer_0.bin","byteLength":1277568},{"uri":"gltf_buffer_1.bin","byteLength":363276}],"bufferViews":[{"buffer":0,"byteOffset":0,"byteLength":1277568},{"buffer":1,"byteOffset":0,"byteLength":363276}]}