{"scene":0,"scenes":[{"nodes":[0]}],"asset":{"version":"2.0","generator":"https://github.com/mikedh/trimesh"},"accessors":[{"componentType":5125,"type":"SCALAR","bufferView":0,"count":94788,"max":[9710],"min":[0]},{"componentType":5126,"type":"VEC3","byteOffset":0,"bufferView":1,"count":9711,"max":[884.8347778320312,77.22702026367188,721.7055053710938],"min":[-907.0216064453125,-0.7729815244674683,-751.7975463867188]}],"meshes":[{"name":"geometry_0","extras":{},"primitives":[{"attributes":{"POSITION":1},"indices":0,"mode":4}]}],"nodes":[{"name":"world","children":[1]},{"name":"geometry_0","mesh":0}],"buffers":[{"uri":"gltf_buffer_0.bin","byteLength":379152},{"uri":"gltf_buffer_1.bin","byteLength":116532}],"bufferViews":[{"buffer":0,"byteOffset":0,"byteLength":379152},{"buffer":1,"byteOffset":0,"byteLength":116532}]}