{"scene":0,"scenes":[{"nodes":[0]}],"asset":{"version":"2.0","generator":"https://github.com/mikedh/trimesh"},"accessors":[{"componentType":5125,"type":"SCALAR","bufferView":0,"count":185832,"max":[24282],"min":[0]},{"componentType":5126,"type":"VEC3","byteOffset":0,"bufferView":1,"count":24283,"max":[796.5210571289062,85.61540985107422,956.6990966796875],"min":[-1376.294921875,-1.8845932483673096,-965.1494140625]}],"meshes":[{"name":"geometry_0","extras":{},"primitives":[{"attributes":{"POSITION":1},"indices":0,"mode":4}]}],"nodes":[{"name":"world","children":[1]},{"name":"geometry_0","mesh":0}],"buffers":[{"uri":"gltf_buffer_0.bin","byteLength":743328},{"uri":"gltf_buffer_1.bin","byteLength":291396}],"bufferViews":[{"buffer":0,"byteOffset":0,"byteLength":743328},{"buffer":1,"byteOffset":0,"byteLength":291396}]}