{"scene":0,"scenes":[{"nodes":[0]}],"asset":{"version":"2.0","generator":"https://github.com/mikedh/trimesh"},"accessors":[{"componentType":5125,"type":"SCALAR","bufferView":0,"count":126060,"max":[20998],"min":[0]},{"componentType":5126,"type":"VEC3","byteOffset":0,"bufferView":1,"count":20999,"max":[517.8584594726562,25.9641170501709,593.62060546875],"min":[-912.9306640625,-13.035881996154785,-585.5690307617188]}],"meshes":[{"name":"geometry_0","extras":{},"primitives":[{"attributes":{"POSITION":1},"indices":0,"mode":4}]}],"nodes":[{"name":"world","children":[1]},{"name":"geometry_0","mesh":0}],"buffers":[{"uri":"gltf_buffer_0.bin","byteLength":504240},{"uri":"gltf_buffer_1.bin","byteLength":251988}],"bufferViews":[{"buffer":0,"byteOffset":0,"byteLength":504240},{"buffer":1,"byteOffset":0,"byteLength":251988}]}