{"scene":0,"scenes":[{"nodes":[0]}],"asset":{"version":"2.0","generator":"https://github.com/mikedh/trimesh"},"accessors":[{"componentType":5125,"type":"SCALAR","bufferView":0,"count":192708,"max":[19524],"min":[0]},{"componentType":5126,"type":"VEC3","byteOffset":0,"bufferView":1,"count":19525,"max":[934.7825927734375,39.87636947631836,625.1317138671875],"min":[-855.3280029296875,-0.12363123893737793,-708.6454467773438]}],"meshes":[{"name":"geometry_0","extras":{},"primitives":[{"attributes":{"POSITION":1},"indices":0,"mode":4}]}],"nodes":[{"name":"world","children":[1]},{"name":"geometry_0","mesh":0}],"buffers":[{"uri":"gltf_buffer_0.bin","byteLength":770832},{"uri":"gltf_buffer_1.bin","byteLength":234300}],"bufferViews":[{"buffer":0,"byteOffset":0,"byteLength":770832},{"buffer":1,"byteOffset":0,"byteLength":234300}]}