{"scene":0,"scenes":[{"nodes":[0]}],"asset":{"version":"2.0","generator":"https://github.com/mikedh/trimesh"},"accessors":[{"componentType":5125,"type":"SCALAR","bufferView":0,"count":195480,"max":[22285],"min":[0]},{"componentType":5126,"type":"VEC3","byteOffset":0,"bufferView":1,"count":22286,"max":[955.6845092773438,153.31134033203125,882.6857299804688],"min":[-1113.0322265625,-6.688657760620117,-953.8004150390625]}],"meshes":[{"name":"geometry_0","extras":{},"primitives":[{"attributes":{"POSITION":1},"indices":0,"mode":4}]}],"nodes":[{"name":"world","children":[1]},{"name":"geometry_0","mesh":0}],"buffers":[{"uri":"gltf_buffer_0.bin","byteLength":781920},{"uri":"gltf_buffer_1.bin","byteLength":267432}],"bufferViews":[{"buffer":0,"byteOffset":0,"byteLength":781920},{"buffer":1,"byteOffset":0,"byteLength":267432}]}