{"scene":0,"scenes":[{"nodes":[0]}],"asset":{"version":"2.0","generator":"https://github.com/mikedh/trimesh"},"accessors":[{"componentType":5125,"type":"SCALAR","bufferView":0,"count":35412,"max":[3483],"min":[0]},{"componentType":5126,"type":"VEC3","byteOffset":0,"bufferView":1,"count":3484,"max":[808.8751831054688,95.22957611083984,618.2110595703125],"min":[-687.6355590820312,-2.770425796508789,-525.237548828125]}],"meshes":[{"name":"geometry_0","extras":{},"primitives":[{"attributes":{"POSITION":1},"indices":0,"mode":4}]}],"nodes":[{"name":"world","children":[1]},{"name":"geometry_0","mesh":0}],"buffers":[{"uri":"gltf_buffer_0.bin","byteLength":141648},{"uri":"gltf_buffer_1.bin","byteLength":41808}],"bufferViews":[{"buffer":0,"byteOffset":0,"byteLength":141648},{"buffer":1,"byteOffset":0,"byteLength":41808}]}